{"asset":{"generator":"glTF-Transform v3.5.1","version":"2.0","extras":{"author":"shedmon (https://sketchfab.com/shedmon)","license":"CC-BY-4.0 (http://creativecommons.org/licenses/by/4.0/)","source":"https://sketchfab.com/3d-models/backpack-0ed15d054d3c4c95b9f610a0fbc4aaa7","title":"Backpack"}},"accessors":[{"type":"VEC3","componentType":5126,"count":3072,"max":[5.97189998626709,5.17519998550415,16.56730079650879],"min":[-6.249499797821045,-10.984600067138672,-0.04479999840259552],"bufferView":0,"byteOffset":0},{"type":"VEC3","componentType":5126,"count":3072,"bufferView":0,"byteOffset":12},{"type":"VEC4","componentType":5126,"count":3072,"bufferView":0,"byteOffset":24},{"type":"VEC2","componentType":5126,"count":3072,"bufferView":0,"byteOffset":40},{"type":"SCALAR","componentType":5125,"count":16434,"bufferView":1,"byteOffset":0}],"bufferViews":[{"buffer":0,"byteOffset":0,"byteLength":147456,"byteStride":48,"target":34962},{"buffer":0,"byteOffset":147456,"byteLength":65736,"target":34963}],"samplers":[{"magFilter":9729,"minFilter":9987,"wrapS":10497,"wrapT":10497}],"textures":[{"source":0,"sampler":0},{"source":1,"sampler":0},{"source":2,"sampler":0},{"source":4,"sampler":0},{"source":3,"sampler":0}],"images":[{"mimeType":"image/png","uri":"textures/Backpack_diffuse.png"},{"mimeType":"image/png","uri":"textures/Backpack_normal.png"},{"mimeType":"image/png","uri":"textures/Backpack_occlusion.png"},{"mimeType":"image/png","uri":"specular_1.png"},{"mimeType":"image/png","uri":"metallicRoughness_1.png"}],"buffers":[{"uri":"scene.bin","byteLength":213192}],"materials":[{"name":"Backpack","doubleSided":true,"pbrMetallicRoughness":{"metallicFactor":0,"baseColorTexture":{"index":0},"metallicRoughnessTexture":{"index":3}},"normalTexture":{"index":1},"occlusionTexture":{"index":2},"extensions":{"KHR_materials_ior":{"ior":1000},"KHR_materials_specular":{"specularTexture":{"index":4},"specularColorTexture":{"index":4}}}}],"meshes":[{"name":"Object_0","primitives":[{"attributes":{"NORMAL":1,"POSITION":0,"TANGENT":2,"TEXCOORD_0":3},"mode":4,"material":0,"indices":4}]}],"nodes":[{"name":"Sketchfab_model","rotation":[-0.7071067811865474,0,0,0.7071067811865476],"scale":[1.2680773735046387,1.2680773735046387,1.2680773735046387],"children":[1]},{"name":"af25af93fb2a43ec9b1fc30106650ea7.obj.cleaner.materialmerger.gles","children":[2]},{"name":"Object_2","mesh":0}],"scenes":[{"name":"Sketchfab_Scene","nodes":[0]}],"scene":0,"extensionsUsed":["KHR_materials_ior","KHR_materials_specular"]}